<svg width="203" height="30" viewBox="0 0 203 30" fill="none" xmlns="http://www.w3.org/2000/svg">
<g clip-path="url(#clip0_647_11188)">
<g clip-path="url(#clip1_647_11188)">
<path d="M112.5 30C120.784 30 127.5 23.2843 127.5 15C127.5 6.71573 120.784 0 112.5 0C104.216 0 97.5 6.71573 97.5 15C97.5 23.2843 104.216 30 112.5 30Z" fill="white"/>
<path fill-rule="evenodd" clip-rule="evenodd" d="M127.5 15C127.5 23.2843 120.784 30 112.5 30C104.216 30 97.5 23.2843 97.5 15C97.5 6.71573 104.216 0 112.5 0C114.119 0 115.677 0.256362 117.138 0.730696L113.719 11.25H103.735L102.515 15H112.5L109.575 24H113.7L116.625 15H127.5ZM127.027 11.25H117.844L120.707 2.44198C123.79 4.46078 126.084 7.58423 127.027 11.25Z" fill="url(#paint0_linear_647_11188)"/>
<path d="M149.885 3.66248H135V26.25H138.932V6.71748H145.953V26.25H149.885V3.66248Z" fill="url(#paint1_linear_647_11188)"/>
<path d="M151.621 22.9025L151.848 23.065C152 23.1516 152.216 23.195 152.498 23.195C153.126 23.195 153.538 22.87 153.733 22.22C153.928 21.57 154.058 20.3783 154.123 18.645L154.448 9.90245H165.531V26.25H161.663V12.9575H157.731L157.503 18.8075C157.438 20.6058 157.276 22.0791 157.016 23.2275C156.756 24.3758 156.322 25.2208 155.716 25.7625C155.109 26.3041 154.253 26.575 153.148 26.575C152.693 26.575 152.325 26.5208 152.043 26.4125L151.621 26.25V22.9025Z" fill="url(#paint2_linear_647_11188)"/>
<path d="M198.503 26.575C195.924 26.575 193.996 25.8491 192.718 24.3975C191.461 22.9241 190.833 20.8225 190.833 18.0925C190.833 16.4241 191.114 14.9508 191.678 13.6725C192.241 12.3941 193.075 11.3975 194.18 10.6825C195.307 9.94579 196.693 9.57745 198.34 9.57745C199.293 9.57745 200.117 9.65329 200.81 9.80495C201.525 9.93495 202.088 10.1191 202.5 10.3575V13.64C202.11 13.4016 201.579 13.1741 200.908 12.9575C200.236 12.7408 199.521 12.6325 198.763 12.6325C197.506 12.6325 196.531 13.0875 195.838 13.9975C195.166 14.8858 194.83 16.2183 194.83 17.995C194.83 19.685 195.133 21.0283 195.74 22.025C196.347 23.0216 197.343 23.52 198.73 23.52C199.553 23.52 200.268 23.4225 200.875 23.2275C201.482 23.0325 202.023 22.7616 202.5 22.415V25.5675C201.568 26.2391 200.236 26.575 198.503 26.575Z" fill="url(#paint3_linear_647_11188)"/>
<path fill-rule="evenodd" clip-rule="evenodd" d="M186.853 11.7875C185.553 10.3141 183.863 9.57745 181.783 9.57745C179.941 9.57745 178.392 10.1625 177.135 11.3325C175.878 12.4808 175.109 14.16 174.827 16.37H172.618V9.90245H168.75V26.25H172.618V19.425H174.795C175.012 21.7433 175.748 23.52 177.005 24.755C178.283 25.9683 179.876 26.575 181.783 26.575C183.863 26.575 185.553 25.8491 186.853 24.3975C188.174 22.9241 188.835 20.8116 188.835 18.06C188.835 15.33 188.174 13.2391 186.853 11.7875ZM184.058 22.22C183.559 23.0866 182.801 23.52 181.783 23.52C180.764 23.52 179.995 23.0866 179.475 22.22C178.977 21.3533 178.728 19.9775 178.728 18.0925C178.728 16.1858 178.977 14.7991 179.475 13.9325C179.995 13.0658 180.764 12.6325 181.783 12.6325C182.801 12.6325 183.559 13.0658 184.058 13.9325C184.578 14.7991 184.838 16.175 184.838 18.06C184.838 19.9666 184.578 21.3533 184.058 22.22Z" fill="url(#paint4_linear_647_11188)"/>
</g>
<path d="M11.075 26.25H15V3.64999H9.275C3.525 3.64999 0.5 6.59999 0.5 10.975C0.5 14.45 2.15 16.5 5.125 18.6L0 26.25H4.25L9.975 17.7L8 16.375C5.575 14.75 4.4 13.475 4.4 10.75C4.4 8.34999 6.1 6.72499 9.3 6.72499H11.05V26.25H11.075ZM86.9 26.575C88.675 26.575 89.95 26.25 90.9 25.575V22.425C89.925 23.1 88.75 23.525 87.125 23.525C84.35 23.525 83.225 21.375 83.225 18C83.225 14.45 84.625 12.625 87.15 12.625C88.65 12.625 90.1 13.15 90.875 13.625V10.35C90.075 9.89999 88.625 9.57499 86.725 9.57499C81.775 9.57499 79.225 13.125 79.225 18.1C79.225 23.55 81.725 26.575 86.9 26.575ZM62.725 25.15V22C61.525 22.8 59.5 23.525 57.625 23.525C54.8 23.525 53.725 22.2 53.575 19.475H62.9V17.425C62.9 11.725 60.4 9.59999 56.525 9.59999C51.8 9.57499 49.55 13.175 49.55 18.125C49.55 23.825 52.35 26.575 57.275 26.575C59.75 26.575 61.575 25.925 62.725 25.15ZM27.3 9.89999V16.375H22.125V9.89999H18.25V26.25H22.125V19.425H27.3V26.25H31.175V9.89999H27.3ZM48.6 23.2H46.875V9.89999H35.6V11.3C35.6 15.3 35.35 20.475 33.975 23.2H32.775V30H36.35V26.25H45.025V29.975H48.6V23.2ZM75.075 26.25H79.45L73.25 17.45L78.7 9.89999H74.8L69.35 17.45V9.89999H65.475V26.25H69.35V18.225L75.075 26.25ZM56.45 12.625C58.375 12.625 58.95 14.225 58.95 16.275V16.6H53.55C53.65 14 54.6 12.625 56.45 12.625ZM43.025 23.2H37.55C38.625 20.725 38.925 16.275 38.925 13.45V12.975H43.025V23.2Z" fill="white"/>
</g>
<defs>
<linearGradient id="paint0_linear_647_11188" x1="97.5" y1="13" x2="127.5" y2="13" gradientUnits="userSpaceOnUse">
<stop stop-color="#FF5C4D"/>
<stop offset="0.4" stop-color="#EB469F"/>
<stop offset="1" stop-color="#8341EF"/>
</linearGradient>
<linearGradient id="paint1_linear_647_11188" x1="135" y1="13.5912" x2="202.5" y2="13.5912" gradientUnits="userSpaceOnUse">
<stop stop-color="#8341EF"/>
<stop offset="1" stop-color="#3F68F9"/>
</linearGradient>
<linearGradient id="paint2_linear_647_11188" x1="135" y1="13.5912" x2="202.5" y2="13.5912" gradientUnits="userSpaceOnUse">
<stop stop-color="#8341EF"/>
<stop offset="1" stop-color="#3F68F9"/>
</linearGradient>
<linearGradient id="paint3_linear_647_11188" x1="135" y1="13.5912" x2="202.5" y2="13.5912" gradientUnits="userSpaceOnUse">
<stop stop-color="#8341EF"/>
<stop offset="1" stop-color="#3F68F9"/>
</linearGradient>
<linearGradient id="paint4_linear_647_11188" x1="135" y1="13.5912" x2="202.5" y2="13.5912" gradientUnits="userSpaceOnUse">
<stop stop-color="#8341EF"/>
<stop offset="1" stop-color="#3F68F9"/>
</linearGradient>
<clipPath id="clip0_647_11188">
<rect width="202.5" height="30" fill="white"/>
</clipPath>
<clipPath id="clip1_647_11188">
<rect width="105" height="30" fill="white" transform="translate(97.5)"/>
</clipPath>
</defs>
</svg>
